# xmcd CD database file
#
# Track frame offsets:
#	150
#	22912
#	45935
#	68662
#
# Disc length: 1220 seconds
#
# Revision: 0
# Processed by: cddbd v1.5PL3 Copyright (c) Steve Scherf et al.
# Submitted via: CDex 1.51
#
DISCID=2204c204
DTITLE=myco - また恋しよう
DYEAR=2004
DGENRE=JPop
TTITLE0=また恋しよう
TTITLE1=赤い糸
TTITLE2=また恋しよう (Instrumental)
TTITLE3=赤い糸 (Instrumental)
EXTD=YEAR: 2004
EXTT0=
EXTT1=
EXTT2=
EXTT3=
PLAYORDER=
